<svg width="5" height="20" viewBox="0 0 5 20" fill="none" xmlns="http://www.w3.org/2000/svg">
<path d="M2.21002 12.1551C3.43058 12.1551 4.42004 11.1657 4.42004 9.9451C4.42004 8.72454 3.43058 7.73508 2.21002 7.73508C0.98946 7.73508 0 8.72454 0 9.9451C0 11.1657 0.98946 12.1551 2.21002 12.1551Z" fill="white"/>
<path d="M2.21002 4.42004C3.43058 4.42004 4.42004 3.43058 4.42004 2.21002C4.42004 0.98946 3.43058 0 2.21002 0C0.98946 0 0 0.98946 0 2.21002C0 3.43058 0.98946 4.42004 2.21002 4.42004Z" fill="white"/>
<path d="M2.21002 19.8902C3.43058 19.8902 4.42004 18.9007 4.42004 17.6802C4.42004 16.4596 3.43058 15.4702 2.21002 15.4702C0.98946 15.4702 0 16.4596 0 17.6802C0 18.9007 0.98946 19.8902 2.21002 19.8902Z" fill="white"/>
</svg>

