<svg width="30" height="30" viewBox="0 0 30 30" fill="none" xmlns="http://www.w3.org/2000/svg">
<path d="M14.8814 5.625C17.9089 5.625 20.0227 7.71129 20.0227 10.7011V19.2989C20.0227 22.2887 17.9089 24.375 14.8814 24.375H7.6413C4.61377 24.375 2.5 22.2887 2.5 19.2989V10.7011C2.5 7.71129 4.61377 5.625 7.6413 5.625H14.8814ZM24.9475 8.59873C25.4962 8.31954 26.14 8.34873 26.6637 8.67868C27.1875 9.00736 27.5 9.57843 27.5 10.2028V19.798C27.5 20.4236 27.1875 20.9934 26.6637 21.3221C26.3775 21.501 26.0575 21.5924 25.735 21.5924C25.4662 21.5924 25.1975 21.5289 24.9462 21.4008L23.095 20.4668C22.41 20.119 21.9849 19.4211 21.9849 18.6457V11.3538C21.9849 10.5772 22.41 9.87919 23.095 9.53401L24.9475 8.59873Z" fill="white"/>
</svg>
